<?xml version="1.0" encoding="utf-8"?>
<!-- Generator: Adobe Illustrator 16.0.0, SVG Export Plug-In . SVG Version: 6.00 Build 0)  -->
<!DOCTYPE svg PUBLIC "-//W3C//DTD SVG 1.1//EN" "http://www.w3.org/Graphics/SVG/1.1/DTD/svg11.dtd">
<svg version="1.1" id="Layer_1" xmlns="http://www.w3.org/2000/svg" xmlns:xlink="http://www.w3.org/1999/xlink" x="0px" y="0px"
	 width="294px" height="373px" viewBox="248.5 118.5 294 373" enable-background="new 248.5 118.5 294 373" xml:space="preserve">
<g>
	<path fill="#A41C33" d="M278.791,382.9c0-23.039-0.056-46.078,0.043-69.116c0.022-5.109-0.637-10.108-1.37-15.125
		c-1.171-8.018-2.327-16.039-3.488-24.059c-1.162-8.019-2.323-16.038-3.485-24.056c-1.156-7.979-2.311-15.959-3.468-23.938
		c-1.169-8.058-2.344-16.116-3.512-24.174c-1.157-7.98-2.305-15.961-3.462-23.941c-1.33-9.165-2.649-18.331-4.006-27.492
		c-0.42-2.838-0.477-2.878,2.33-3.308c9.231-1.413,18.471-2.779,27.704-4.183c9.707-1.476,19.409-2.984,29.115-4.46
		c9.746-1.483,19.497-2.936,29.244-4.418s19.49-2.986,29.236-4.475c7.418-1.133,14.836-2.263,22.258-3.376
		c1.655-0.248,3.255,0.271,4.866,0.511c10.935,1.629,21.862,3.305,32.792,4.972c9.705,1.48,19.409,2.973,29.115,4.452
		c9.706,1.478,19.414,2.941,29.121,4.417c8.721,1.325,17.438,2.663,26.159,3.987c6.076,0.923,12.158,1.814,18.231,2.758
		c1.935,0.301,1.581,0.073,1.335,1.776c-1.153,7.981-2.293,15.963-3.449,23.944c-1.32,9.125-2.66,18.248-3.981,27.374
		c-1.161,8.021-2.301,16.042-3.463,24.061c-1.315,9.085-2.65,18.168-3.967,27.253c-1.163,8.019-2.312,16.04-3.471,24.059
		c-1.146,7.941-2.29,15.882-3.458,23.82c-0.634,4.307-1.149,8.602-1.146,12.984c0.056,47.996,0.03,95.994,0.065,143.991
		c0.001,1.213-0.283,1.689-1.508,1.967c-20.034,4.536-40.058,9.123-60.081,13.709c-16.873,3.863-33.742,7.749-50.62,11.597
		c-1.817,0.414-3.595,1.043-5.497,1.08c-2.395,0.047-4.629-0.758-6.909-1.275c-19.097-4.338-38.182-8.729-57.27-13.105
		c-16.562-3.8-33.122-7.603-49.683-11.401c-1.205-0.276-2.404-0.587-3.62-0.812c-0.557-0.104-0.752-0.35-0.707-0.881
		c0.023-0.276,0.004-0.56,0.004-0.839C278.791,432.418,278.791,407.659,278.791,382.9z"/>
	<path fill="#FFFFFF" d="M388.15,394.45c0,22.795,0,45.589,0,68.384c0,1.424,0.001,1.415-1.418,1.13
		c-22.49-4.505-44.979-9.006-67.469-13.511c-7.589-1.521-15.174-3.063-22.77-4.547c-0.958-0.188-1.23-0.536-1.229-1.53
		c0.031-39.551,0.033-79.103-0.003-118.653c-0.001-1.121,0.345-1.265,1.333-1.264c30.073,0.025,60.146,0.027,90.219-0.005
		c1.103-0.001,1.365,0.284,1.363,1.371C388.142,348.7,388.15,371.575,388.15,394.45z"/>
	<path fill="#080707" d="M289.144,256.133c-1.202-8.324-2.412-16.646-3.603-24.971c-1.073-7.496-2.119-14.996-3.188-22.493
		c-0.85-5.956-1.717-11.909-2.576-17.864c1.444-0.92,2.982-0.391,4.425-0.133c3.93,0.703,7.557,2.296,11.079,4.139
		c4.731,2.475,8.957,5.72,13.325,8.749c3.255,2.257,6.564,4.427,10.133,6.168c5.751,2.806,11.636,2.845,17.587,0.763
		c4.05-1.417,7.682-3.577,10.776-6.565c3.066-2.962,6.833-4.497,10.855-5.59c4.187-1.138,8.494-1.494,12.768-2.077
		c2.335-0.319,4.689-0.515,6.98-1.113c1.128-0.294,2.142-0.814,3.225-1.526c-3.263-0.421-6.238,0.044-9.081,1.38
		c-1.054,0.495-2.172,0.81-3.271,1.18c-0.42,0.142-0.854,0.211-1.299,0.191c-0.999-0.044-1.245-0.379-0.864-1.279
		c0.471-1.11,1.125-2.1,1.933-3.012c2.167-2.447,4.896-4.084,7.765-5.533c3.141-1.586,6.279-3.176,8.913-5.603
		c-2.156,0.809-4.305,1.583-6.418,2.455c-1.831,0.755-3.531,1.687-4.863,3.201c-0.474,0.538-0.985,1.066-1.716,1.265
		c-0.912,0.247-1.406-0.142-1.369-1.082c0.026-0.653,0.285-1.244,0.567-1.82c1.229-2.514,3.221-4.345,5.391-6.018
		c1.773-1.367,3.644-2.602,5.381-4.019c0.997-0.813,1.907-1.702,2.785-2.76c-2.086,1.252-4.152,2.369-6.109,3.67
		c-1.167,0.777-2.296,1.565-3.166,2.713c-0.757,0.999-1.795,1.269-2.374,0.813c-0.504-0.397-0.41-1.443,0.217-2.435
		c0.216-0.341,0.478-0.643,0.769-0.917c1.342-1.266,2.606-2.612,3.645-4.132c1.958-2.866,4.848-4.728,7.361-6.997
		c1.841-1.662,3.627-3.366,5.056-5.425c1.354-1.952,1.814-4.058,1.413-6.375c-0.573-3.308,0.258-6.252,2.281-8.895
		c0.173-0.227,0.354-0.433,0.63-0.532c0.475-0.393,1.043-0.392,1.614-0.383c0.401,0.444,0.339,0.975,0.217,1.479
		c-0.928,3.825-0.372,7.462,1.413,10.923c1.621,3.143,3.67,5.995,6.026,8.63c1.708,1.91,3.427,3.814,4.163,6.366
		c0.216,0.744,0.322,1.49,0.187,2.25c-0.241,1.328-1.114,1.631-2.113,0.717c-1.237-1.132-2.327-2.422-3.682-3.434
		c-0.482-0.362-0.976-0.701-1.532-0.932c-0.32-0.133-0.667-0.406-1.01-0.161c-0.348,0.249-0.208,0.659-0.152,1.005
		c0.3,1.855,1.178,3.379,2.639,4.565c1.468,1.191,3.13,2.074,4.763,3.005c1.915,1.093,3.788,2.237,5.093,4.1
		c0.563,0.802,0.921,1.685,1.162,2.617c0.256,0.993-0.006,1.348-1.012,1.416c-1.455,0.097-2.757-0.376-3.963-1.148
		c-1.11-0.711-2.167-1.508-3.372-2.066c-0.735-0.339-1.5-0.559-2.31-0.591c-0.268-0.011-0.601-0.102-0.764,0.194
		c-0.162,0.294,0.074,0.535,0.241,0.748c0.782,0.997,1.771,1.717,2.94,2.207c1.327,0.557,2.681,1.064,3.935,1.777
		c3.052,1.736,5.513,3.985,6.308,7.593c0.158,0.718,0.517,0.786,1.121,0.58c2.084-0.708,4.187-1.356,6.362-1.725
		c0.371-0.063,0.741-0.185,0.823-0.591c0.25-1.239,1.175-1.843,2.158-2.418c0.327-0.191,0.719-0.359,0.81-0.942
		c-0.917,0.044-1.606,0.49-2.271,0.975c-0.681,0.498-1.373,0.977-2.179,1.245c-1.255,0.418-1.765,0.012-1.567-1.276
		c0.347-2.257,1.743-3.801,3.524-5.071c1.527-1.09,3.221-1.951,4.726-3.505c-1.221,0.426-2.292,0.42-3.354,0.51
		c-1.205,0.102-2.102,0.623-2.686,1.727c-0.386,0.729-0.845,1.681-1.849,1.38c-1.018-0.305-0.592-1.356-0.604-2.096
		c-0.021-1.18,0.583-2.136,1.335-2.998c0.903-1.036,1.999-1.834,3.177-2.531c1.032-0.611,2.076-1.204,3.048-1.912
		c1.277-0.931,2.18-2.084,2.358-3.729c0.099-0.912,0.286-1.816,0.486-2.714c0.362-1.624,1.104-2.994,2.577-3.88
		c0.795-0.478,1.313-1.142,1.456-2.089c0.084-0.559,0.313-1.074,0.716-1.493c0.715-0.739,1.23-0.628,1.543,0.356
		c0.483,1.522,0.037,3.014-0.211,4.503c-0.145,0.866-0.368,1.72-0.566,2.575c-0.487,2.096,0.25,3.768,1.661,5.234
		c1.056,1.094,2.182,2.121,3.207,3.24c1.157,1.263,2.082,2.643,1.879,4.496c-0.157,1.426-0.906,1.803-2.112,1.014
		c-0.82-0.537-1.478-1.323-2.515-1.719c-0.053,0.588,0.284,0.884,0.567,1.178c1.023,1.064,2.322,1.491,3.762,1.633
		c5.163,0.51,9.222-1.378,12.235-5.574c1.446-2.014,2.967-3.986,3.936-6.292c1.389-3.299,3.704-5.75,6.752-7.559
		c2.908-1.728,5.927-3.312,9.343-3.538c3.138-0.208,6.301-0.203,9.453,0.244c4.908,0.695,9.765,1.746,14.7,2.222
		c3.06,0.295,6.112,0.661,9.186,0.844c2.55,0.151,5.09,0.466,7.622,0.82c0.425,0.06,0.888,0.085,1.207,0.455
		c-0.523,3.833-1.03,7.667-1.573,11.498c-0.912,6.436-1.848,12.869-2.771,19.304c-0.929,6.473-1.858,12.946-2.781,19.42
		c-0.922,6.475-1.831,12.953-2.755,19.428c-0.828,5.805-1.667,11.609-2.503,17.413c-0.84,5.843-1.697,11.683-2.509,17.529
		c-0.188,1.365-0.786,2.669-0.612,4.086c-0.582,1.306-0.594,2.75-1.009,4.101c-2.068,6.736-4.441,13.338-8.631,19.106
		c-2.877,3.962-6.301,7.308-10.974,9.139c-0.755,0.295-1.52,0.475-2.33,0.405c-0.54,0.188-1.102,0.145-1.657,0.145
		c-3.789,0.001-7.578-0.005-11.366,0.006c-0.678,0.002-1.347-0.019-2.005-0.188c-2.44,0.19-4.763-0.517-7.073-1.084
		c-8.506-2.087-16.891-4.593-25.13-7.58c-5.146-1.866-10.227-3.942-15.624-5.028c-2.741-0.552-5.509-0.986-8.193-1.804
		c-2.866-0.873-5.306-2.264-7.068-4.831c-1.459-2.124-3.768-3.311-5.992-4.496c-2.865-1.527-5.9-2.675-8.971-3.703
		c-4.777-1.599-9.507-3.335-14.29-4.915c-2.084-0.688-4.251-1.14-6.484-0.638c-2.098,0.472-3.716,1.613-4.852,3.438
		c-0.232,0.374-0.437,0.765-0.687,1.126c-0.286,0.411-0.41,1.143-0.986,1.081c-0.613-0.066-0.718-0.783-0.872-1.311
		c-1.442-4.94,1.481-10.801,6.123-12.127c1.866-0.533,3.822-0.43,5.71-0.081c4.144,0.766,8.074,2.278,12.038,3.655
		c6.72,2.334,13.22,5.284,20.086,7.212c3.859,1.084,7.776,1.823,11.798,1.902c1.004-0.072,1.624-0.746,2.237-1.431
		c1.063-1.19,2.178-2.325,2.845-3.829c0.784-1.769,0.751-3.371-0.486-4.939c-1.825-2.314-4.14-4.023-6.744-5.283
		c-8.933-4.319-17.956-8.416-27.712-10.596c-1.792-0.4-3.564-0.908-5.336-1.395c-2.782-0.764-5.625-0.92-8.446-0.606
		c-5.003,0.556-8.021,3.657-9.647,8.223c-1.43,4.014-2.014,8.218-2.58,12.422c-0.182,1.352-0.04,2.712-0.244,4.054
		c-0.135,0.886-0.36,1.737-1.296,2.149c-0.632,0.032-0.672-0.438-0.74-0.878c-0.992-6.412-1.522-12.862-1.196-19.346
		c0.21-4.178,0.958-8.279,3.229-11.913c2.553-4.082,6.301-6.047,11.095-6.25c4.225-0.179,8.283,0.592,12.263,1.866
		c5.94,1.9,11.876,3.826,17.586,6.364c6.909,3.071,13.657,6.462,20.188,10.278c0.55,0.321,1.096,0.65,1.815,0.992
		c-2.582-2.952-5.115-5.74-7.271-8.855c-4.626-6.69-7.226-14.102-8.318-22.123c-0.593-4.351-0.924-8.752-2.179-12.996
		c-0.944-3.198-2.431-6.07-4.869-8.409c-0.948-0.91-2.063-1.393-3.33-1.454c-1.434-0.068-2.875-0.125-4.308,0.115
		c-1.401,0.234-2.79-0.114-4.177-0.204c-3.835-0.247-7.655-0.241-11.49,0.012c-4.771,0.315-9.43,1.156-14.022,2.467
		c-5.797,1.654-10.846,4.597-15.416,8.5c-4.792,4.092-7.557,9.434-9.717,15.172c-2.391,6.35-3.125,12.952-2.752,19.691
		c0.08,1.431,0.266,2.864,0.524,4.282c0.093,0.509,0.205,1.04-0.281,1.447c-1.155,0.539-2.405,0.56-3.631,0.597
		c-2.994,0.09-5.979-0.147-8.958-0.415c-2.167-0.195-4.312,0.102-6.45,0.258c-2.796,0.203-5.584,0.179-8.375,0.161
		c-4.111-0.026-8.217,0.111-12.324,0.243C291.467,256.723,290.269,256.624,289.144,256.133z"/>
	<path fill="#FFFFFF" d="M394.508,143.654c-2.415,3.157-3.211,6.662-2.512,10.594c0.402,2.263-0.618,4.203-1.962,5.973
		c-2.196,2.893-4.905,5.271-7.774,7.435c-2.09,1.577-3.554,3.65-5.169,5.619c-0.915,1.114-1.917,2.141-2.963,3.129
		c-0.533,0.505-0.939,1.095-1.04,1.838c-0.046,0.342-0.182,0.775,0.155,1.003c0.341,0.23,0.777,0.137,1.16-0.004
		c0.143-0.053,0.293-0.157,0.381-0.28c2.352-3.292,6.077-4.686,9.315-6.752c0.453-0.289,0.926-0.546,1.672-0.984
		c-1.364,2.159-3.036,3.546-4.766,4.869c-2.125,1.625-4.394,3.064-6.348,4.906c-1.463,1.379-2.749,2.904-3.48,4.81
		c-0.224,0.583-0.597,1.409-0.084,1.795c0.6,0.452,1.33-0.103,1.767-0.618c3.418-4.031,8.553-4.655,12.99-6.669
		c-1.649,2.098-3.853,3.444-6.121,4.695c-2.372,1.308-4.848,2.425-7.138,3.881c-2.746,1.747-5.044,3.893-6.219,7.106
		c0.83,0.283,1.587,0.034,2.326-0.175c0.801-0.228,1.622-0.459,2.358-0.835c3.336-1.707,6.872-2.097,10.631-1.683
		c-1.555,1.65-3.579,2.167-5.652,2.52c-5.351,0.91-10.786,1.231-16.112,2.344c-5.229,1.093-9.811,3.268-13.799,6.94
		c-4.517,4.159-9.982,6.538-16.143,7.096c-4.545,0.412-8.774-0.691-12.761-2.876c-4.842-2.655-9.32-5.856-13.805-9.052
		c-5.054-3.602-10.369-6.714-16.329-8.596c-2.381-0.752-4.8-1.188-7.309-0.878c-1.183-8.293-2.367-16.586-3.55-24.88
		c-0.146-1.027-0.207-2.077-0.465-3.075c-0.213-0.822,0.166-0.953,0.792-1.048c5.835-0.892,11.669-1.787,17.502-2.692
		c7.922-1.23,15.842-2.471,23.763-3.706c9.024-1.406,18.049-2.808,27.074-4.214c8.434-1.314,16.866-2.629,25.299-3.946
		c7.88-1.231,15.761-2.466,23.641-3.696C394.061,143.511,394.31,143.449,394.508,143.654z"/>
	<path fill="#FFFFFF" d="M355.779,276.874c0.97-0.797,1.073-1.921,1.091-3.046c0.087-5.39,1.021-10.651,2.807-15.708
		c2.121-6.003,6.868-8.823,13.251-8.375c4.022,0.283,7.808,1.568,11.68,2.496c9.638,2.31,18.601,6.341,27.396,10.785
		c2.257,1.14,4.242,2.683,5.876,4.655c1.467,1.772,1.626,3.629,0.626,5.676c-0.753,1.541-1.846,2.786-3.094,3.923
		c-0.585,0.055-0.699-0.443-0.91-0.802c-0.39-0.663-0.568-1.413-0.742-2.147c-0.472-1.983-1.774-3.229-3.466-4.217
		c-4.166-2.433-8.657-4.125-13.158-5.778c-5.591-2.052-11.24-3.939-16.822-6.019c-3.512-1.308-6.957-1.057-10.336,0.612
		c-3.245,1.602-6.275,3.509-9.059,5.945c1.499-0.154,2.892-0.555,4.288-0.92c2.646-0.692,5.221-0.705,7.9,0.094
		c4.708,1.404,9.555,2.292,14.259,3.751c5.733,1.778,11.35,3.868,16.963,5.972c1.873,0.702,3.839,1.115,5.681,1.912
		c1.001,0.434,1.921,0.987,2.776,1.646c0.394,0.302,0.89,0.61,0.656,1.264c-4.074,0.096-8.005-0.755-11.904-1.807
		c-6.592-1.777-12.797-4.635-19.227-6.864c-4.435-1.538-8.806-3.31-13.466-4.113c-1.545-0.266-3.118-0.319-4.655-0.032
		c-3.814,0.712-5.567,3.426-6.431,6.902c-0.598,2.404-0.397,4.516,0.536,6.407c0.166-0.288,0.316-0.523,0.442-0.77
		c2.399-4.683,5.686-6.27,10.853-5.055c4.664,1.096,9.023,3.137,13.583,4.572c4.18,1.315,8.311,2.789,12.17,4.9
		c2.496,1.365,4.771,2.946,6.4,5.432c1.293,1.973,3.546,2.761,5.738,3.453c3.356,1.058,6.87,1.417,10.271,2.275
		c5.535,1.396,10.786,3.637,16.173,5.477c9.433,3.22,18.953,6.131,28.764,8c0.313,0.06,0.634,0.084,0.95,0.125
		c-0.395,0.281-0.849,0.18-1.279,0.18c-54.897,0.005-109.794,0.001-164.692,0.027c-0.913,0.001-1.241-0.269-1.326-1.137
		c-0.125-1.271-0.375-2.526-0.518-3.794c-0.046-0.407-0.27-0.872,0.122-1.251c0.173-0.342,0.506-0.374,0.821-0.387
		c2.713-0.114,5.409-0.479,8.128-0.515c10.667-0.138,21.338,0.248,32-0.036c10.633-0.283,21.265-0.218,31.895-0.149
		c5.231,0.034,10.468,0.272,15.7,0.165c5.029-0.103,10.057-0.328,15.086-0.479c0.869-0.026,1.723-0.284,2.847-0.164
		c-0.556-0.238-0.899-0.263-1.227-0.354c-1.243-0.348-1.343-0.659-0.419-1.599c0.445-0.454,0.379-0.851,0.041-1.262
		c-0.778-0.949-1.787-1.302-2.994-1.072c-1.384,0.263-2.68,0.798-3.99,1.289c-2.25,0.843-4.527,1.583-6.935,1.849
		c-0.782,0.086-1.529,0.042-2.18-0.429c-0.919-0.665-0.79-1.824,0.244-2.292c0.478-0.216,1.008-0.25,1.503-0.408
		c0.255-0.082,0.618-0.097,0.652-0.431c0.04-0.393-0.331-0.528-0.617-0.635c-1.167-0.436-2.364-0.35-3.544-0.078
		c-2.554,0.588-4.874,1.792-7.241,2.854c-2.051,0.919-4.162,1.376-6.404,1.266c-0.773-0.038-1.507-0.2-2.183-0.575
		c-1.311-0.727-1.43-2.211-0.261-3.157c0.959-0.777,2.144-0.807,3.282-0.997c0.364-0.061,0.934,0.151,1.017-0.363
		c0.081-0.501-0.453-0.708-0.845-0.885c-0.969-0.436-1.98-0.549-3.045-0.415c-2.829,0.356-5.37,1.533-7.901,2.731
		c-2.673,1.265-5.301,2.628-8.123,3.556c-0.769,0.252-1.555,0.38-2.353,0.428c-1.719,0.103-3.288-1.063-3.636-2.669
		c-0.313-1.446,0.592-2.798,2.328-3.439c0.866-0.32,1.78-0.453,2.687-0.607c1.166-0.198,1.269-0.505,0.514-1.443
		c-1.517-1.882-3.632-2.255-5.837-2.155c-2.586,0.117-4.888,1.107-6.927,2.708c-3.091,2.426-6.504,4.364-9.823,6.444
		c-1.457,0.914-3.044,1.419-4.784,1.295c-2.92-0.208-5.015-3.357-4.062-6.117c0.311-0.901,1.047-1.394,1.907-1.693
		c1.987-0.693,3.996-0.705,6.016-0.144c1.324,0.368,1.694,0.019,1.301-1.338c-0.669-2.306-2.385-3.635-4.485-4.519
		c-4.282-1.803-8.396-1.124-12.333,1.039c-3.747,2.058-6.854,4.961-9.993,7.81c-1.6,1.453-3.23,2.867-5.054,4.036
		c-0.422,0.271-0.819,0.683-1.411,0.464c-0.477-3.152-0.971-6.302-1.427-9.458c-1.175-8.135-2.333-16.271-3.498-24.407
		c-0.413-2.883-0.825-5.766-1.237-8.649c6.938,0.259,13.883,0.01,20.809-0.161c6.027-0.148,12.032-0.211,18.049,0.063
		c1.521,0.069,3.025-0.147,4.519-0.429c0.307,0.169,0.431,0.471,0.517,0.776c1.333,4.697,4.006,8.664,6.819,12.558
		c2.666,3.692,5.404,7.321,8.791,10.404c1.269,1.155,2.571,2.271,3.922,3.329c0.912,0.713,1.992,0.989,3.107,1.149
		c0.728,0.104,1.023-0.171,0.883-0.955c-0.266-1.493-0.531-2.985-0.784-4.48C355.694,277.895,355.455,277.375,355.779,276.874z"/>
	<path fill="#FFFFFF" d="M517.116,166.106c-10.874-1.181-21.779-2.045-32.574-3.95c-6.59-1.163-13.045-0.693-18.881,3.2
		c-2.686,1.791-4.924,3.884-6.25,6.899c-1.343,3.053-3.242,5.777-5.446,8.268c-3.406,3.85-7.702,5.08-12.674,4.037
		c-1.551-0.325-2.786-1.17-3.455-2.683c-0.089-0.201-0.327-0.421-0.105-0.635c0.191-0.185,0.467-0.071,0.678,0.021
		c0.892,0.391,1.57,1.086,2.338,1.656c0.47,0.349,1.011,0.959,1.563,0.64c0.513-0.294,0.396-1.08,0.405-1.676
		c0.021-1.321-0.587-2.398-1.445-3.32c-1.032-1.111-2.12-2.174-3.22-3.222c-1.992-1.903-2.714-4.123-1.997-6.845
		c0.504-1.916,1.147-3.844,0.688-5.884c-0.076-0.339-0.004-0.857-0.405-0.914c-0.4-0.056-0.797,0.328-0.854,0.719
		c-0.302,2.019-1.646,3.188-3.146,4.387c-1.28,1.023-1.487,2.741-1.59,4.274c-0.192,2.862-1.646,4.723-4.089,6.011
		c-1.374,0.725-2.726,1.508-3.922,2.518c-1.526,1.288-2.404,2.862-2.134,4.928c0.033,0.261-0.074,0.604,0.262,0.73
		c0.325,0.122,0.646,0.009,0.874-0.236c0.239-0.259,0.514-0.534,0.631-0.854c0.618-1.694,1.957-2.189,3.587-2.258
		c1.153-0.048,2.301-0.148,3.706-0.734c-0.775,1.125-1.54,1.812-2.396,2.402c-1.183,0.815-2.415,1.563-3.568,2.415
		c-1.642,1.21-2.711,2.782-2.907,4.886c-0.055,0.586,0.152,0.683,0.638,0.634c1.008-0.101,1.766-0.702,2.53-1.273
		c0.968-0.723,1.967-1.332,3.298-1.249c-0.177,0.993-0.901,1.413-1.617,1.844c-0.87,0.523-1.729,1.059-1.715,2.253
		c0.005,0.424-0.246,0.521-0.609,0.562c-2.797,0.31-5.409,1.315-8.122,2.19c-0.59-5.165-4.055-7.783-8.405-9.613
		c-1.433-0.603-2.907-1.124-4.106-2.16c-0.694-0.601-1.684-1.416-1.322-2.188c0.27-0.579,1.581-0.249,2.433-0.051
		c1.479,0.343,2.657,1.251,3.895,2.051c1.383,0.893,2.765,1.741,4.521,1.65c0.785-0.041,1.049-0.187,0.813-1.058
		c-0.583-2.169-1.887-3.785-3.703-4.978c-1.799-1.18-3.696-2.205-5.524-3.341c-2.514-1.563-4.366-3.575-4.578-6.74
		c-0.068-1.02,0.266-1.024,1.065-0.758c1.744,0.578,2.946,1.86,4.218,3.069c0.723,0.688,1.457,1.363,2.181,2.05
		c0.449,0.427,0.745,0.305,0.979-0.227c0.376-0.854,0.309-1.708,0.057-2.573c-0.595-2.038-1.712-3.76-3.145-5.305
		c-2.809-3.028-5.286-6.297-7.16-9.992c-1.516-2.99-2.135-6.155-1.765-9.506c0.108-0.979,0.792-1.862,0.482-2.908
		c1.213-0.364,2.369,0.125,3.527,0.303c14.394,2.207,28.78,4.455,43.17,6.702c15.648,2.443,31.298,4.902,46.947,7.342
		c8.987,1.401,17.978,2.788,26.971,4.155c0.837,0.128,1.161,0.357,0.9,1.279C517.359,164.04,517.282,165.085,517.116,166.106z"/>
	<path fill="#FFFFFF" d="M498.117,426.954c0.011,5.992,0.02,11.984,0.036,17.977c0.001,0.43-0.021,0.695-0.583,0.806
		c-5.357,1.049-10.705,2.144-16.059,3.217c-0.104,0.021-0.228-0.05-0.343-0.077c-0.323-0.073-0.575-0.26-0.815-0.479
		c-3.748-3.438-7.058-7.188-8.716-12.132c-0.268-0.796-0.692-1.525-1.12-2.251c-1.07-1.819-2.537-3.095-4.556-3.865
		c-2.584-0.988-5.212-1.813-7.887-2.479c-6.093-1.514-12.135-3.165-18.058-5.281c-9.486-3.389-19.234-5.966-28.814-9.07
		c-1.561-0.507-3.109-1.037-4.664-1.556c-0.45-0.149-0.939-0.243-1.23-0.685c-0.007-8.854-0.014-17.706-0.016-26.56
		c0-0.193,0.056-0.39,0.085-0.584c0.2-0.087,0.402-0.063,0.573,0.049c3.241,2.104,6.821,3.696,9.553,6.566
		c1.43,1.502,2.449,3.242,3.438,5.027c1.139,2.061,2.189,4.166,3.846,5.907c2.468,2.596,5.68,3.826,8.929,4.948
		c6.878,2.374,13.87,4.393,20.863,6.389c10.612,3.029,21.093,6.469,31.552,9.978c4.096,1.373,8.262,2.503,12.459,3.521
		C497.13,426.449,497.699,426.525,498.117,426.954z"/>
	<path fill="#FFFFFF" d="M476.79,449.796c-3.261,0.928-6.613,1.43-9.928,2.104c-13.868,2.813-27.744,5.586-41.618,8.372
		c-6.335,1.272-12.671,2.54-19.004,3.821c-0.59,0.119-0.965,0.171-0.964-0.664c0.021-16.469,0.019-32.938,0.023-49.405
		c0-0.115,0.056-0.23,0.084-0.347c0.338-0.146,0.635,0.009,0.907,0.164c2.606,1.48,5.28,2.839,7.835,4.415
		c3.472,2.143,6.021,5.014,7.146,8.981c1.068,3.771,3.672,5.959,7.173,7.324c5.068,1.979,10.252,3.624,15.436,5.269
		c8.313,2.635,16.814,4.6,25.202,6.971c2.233,0.632,4.407,1.446,6.611,2.167C476.14,449.113,476.628,449.251,476.79,449.796z"/>
	<path fill="#FFFFFF" d="M405.31,352.999c-0.006-8.493-0.013-16.987-0.015-25.481c0-0.153,0.054-0.31,0.082-0.464
		c0.589-0.312,1.088,0.037,1.587,0.245c2.087,0.867,3.714,2.319,5.098,4.072c1.912,2.42,3.479,5.08,5.262,7.592
		c2.439,3.439,5.678,5.784,9.563,7.338c3.982,1.592,8.111,2.717,12.206,3.953c6.393,1.931,12.771,3.904,19.159,5.845
		c7.958,2.416,15.914,4.837,23.868,7.265c5.048,1.541,10.098,3.078,15.128,4.675c0.353,0.111,0.68,0.238,0.872,0.579
		c-0.001,8.813-0.002,17.628-0.003,26.441c-1.041,0.299-1.641-0.47-2.252-1.03c-1.746-1.603-3.139-3.514-4.503-5.439
		c-1.089-1.535-2.111-3.13-2.904-4.825c-1.701-3.637-4.717-5.754-8.168-7.408c-4.499-2.157-9.346-3.273-14.114-4.611
		c-5.005-1.405-9.969-2.953-14.889-4.614c-7.43-2.509-14.977-4.611-22.5-6.792c-3.152-0.914-6.223-2.063-9.272-3.266
		c-3.166-1.247-6.41-2.257-9.688-3.15c-1.156-0.313-2.325-0.594-3.541-0.577C405.929,353.347,405.555,353.338,405.31,352.999z"/>
	<path fill="#FFFFFF" d="M405.31,382.041c-0.007-8.773-0.014-17.547-0.016-26.319c0-0.193,0.056-0.389,0.086-0.583
		c0.518-0.167,0.813,0.232,1.161,0.471c2.663,1.813,4.576,4.33,6.42,6.902c1.724,2.404,3.373,4.865,5.376,7.057
		c1.61,1.759,3.52,3.134,5.621,4.237c5.026,2.642,10.448,4.209,15.861,5.792c8.91,2.604,17.651,5.715,26.423,8.738
		c6.883,2.373,13.79,4.671,20.845,6.484c3.404,0.875,6.776,1.916,10.283,2.349c0.236,0.029,0.479,0.083,0.581,0.351
		c0.181,0.188,0.2,0.421,0.2,0.666c-0.016,8.386-0.027,16.771-0.04,25.155c-0.533,0.151-0.828-0.242-1.107-0.549
		c-3.198-3.511-6.5-6.923-8.223-11.522c-1.012-2.7-3.396-4.202-5.954-5.055c-8.414-2.797-16.749-5.856-25.491-7.591
		c-5.376-1.065-10.577-2.833-15.747-4.646c-8.224-2.884-16.49-5.637-24.816-8.208c-3.514-1.085-7.029-2.158-10.562-3.187
		C405.861,382.482,405.522,382.366,405.31,382.041z"/>
	<path fill="#FFFFFF" d="M407.229,324.618c0.457-0.212,0.943-0.135,1.42-0.136c29.393-0.003,58.783,0.004,88.176-0.029
		c1.104-0.001,1.354,0.289,1.352,1.366c-0.039,12.756-0.022,25.513-0.029,38.269c0,0.432,0.113,0.882-0.133,1.291
		c-0.546-0.054-0.8-0.49-1.092-0.857c-1.074-1.353-1.904-2.853-2.688-4.386c-1.345-2.631-2.633-5.29-4.415-7.674
		c-1.461-1.953-3.349-3.283-5.597-4.159c-3.657-1.427-7.465-2.357-11.254-3.337c-8.319-2.147-16.469-4.877-24.72-7.259
		c-10.017-2.892-20.045-5.751-29.912-9.134c-3.287-1.128-6.557-2.309-9.889-3.301C408.01,325.143,407.479,325.123,407.229,324.618z"
		/>
	<path fill="#080808" d="M497.951,397.52c-5.211-0.607-10.203-2.166-15.221-3.584c-11-3.108-21.694-7.151-32.522-10.785
		c-6.682-2.242-13.544-3.904-20.159-6.349c-4.354-1.606-8.599-3.428-11.854-6.929c-2.209-2.377-3.994-5.077-5.867-7.709
		c-1.938-2.72-4.106-5.201-6.947-7.025c-0.172-0.708-0.112-1.425-0.071-2.14c3.757-0.051,7.28,1.138,10.654,2.491
		c9.79,3.929,20.06,6.304,30.034,9.609c10.021,3.322,20.183,6.185,30.261,9.316c4.146,1.289,8.026,3.161,10.896,6.613
		c1.209,1.454,1.835,3.258,2.83,4.846c1.571,2.509,3.271,4.92,5.25,7.124c0.805,0.896,1.696,1.688,2.883,2.059
		C498.081,395.88,498.336,396.722,497.951,397.52z"/>
	<path fill="#080808" d="M407.229,324.618c6.268,1.737,12.304,4.184,18.524,6.058c11.79,3.55,23.608,7.007,35.385,10.603
		c6.751,2.061,13.596,3.779,20.381,5.711c4.854,1.381,8.485,4.076,10.717,8.643c0.996,2.038,2.107,4.021,3.179,6.022
		c0.718,1.344,1.596,2.578,2.599,3.725c0.265,1.072,0.096,2.158,0.108,3.238c-21.749-6.632-43.498-13.262-65.247-19.896
		c-2.284-0.696-4.519-1.527-6.737-2.415c-4.064-1.626-7.204-4.324-9.62-7.949c-1.504-2.257-2.936-4.563-4.614-6.699
		c-1.722-2.189-3.774-3.88-6.522-4.604c-0.035-0.271-0.091-0.543-0.1-0.815C405.213,324.328,405.328,324.235,407.229,324.618z"/>
	<path fill="#080808" d="M405.31,382.041c6.99,1.909,13.878,4.159,20.782,6.35c9.368,2.973,18.529,6.583,28.026,9.156
		c4.921,1.332,9.983,2.091,14.836,3.709c4.34,1.447,8.705,2.818,13.038,4.288c3.812,1.292,6.788,3.5,7.902,7.619
		c0.082,0.305,0.204,0.619,0.386,0.872c2.366,3.308,4.717,6.629,7.831,9.306c0.002,1.204,0.004,2.409,0.006,3.613
		c-7.271-1.503-14.305-3.817-21.299-6.245c-10.503-3.646-21.22-6.589-31.85-9.814c-5.063-1.536-10.161-2.964-15.14-4.787
		c-4.925-1.805-8.63-4.818-10.774-9.692c-1.934-4.396-5.16-7.604-9.39-9.859c-1.475-0.786-2.859-1.74-4.286-2.618
		C405.219,383.309,405.264,382.675,405.31,382.041z"/>
	<path fill="#080808" d="M476.79,449.796c-3.584-1.569-7.337-2.635-11.108-3.613c-11.688-3.033-23.339-6.195-34.709-10.304
		c-0.636-0.229-1.259-0.498-1.898-0.714c-4.264-1.431-7.162-4.147-8.405-8.579c-1.017-3.624-3.571-6.05-6.646-8.019
		c-2.791-1.787-5.772-3.231-8.637-4.891c-0.198-0.861-0.104-1.731-0.076-2.601c12.638,4.262,25.558,7.634,38.113,12.146
		c5.486,1.972,11.185,3.178,16.793,4.705c2.112,0.575,4.166,1.33,6.222,2.093c2.127,0.79,3.521,2.247,4.533,4.183
		c0.147,0.282,0.345,0.547,0.446,0.845c1.85,5.352,5.191,9.65,9.367,13.371c0.146,0.131,0.258,0.303,0.386,0.457
		C479.768,449.455,478.28,449.632,476.79,449.796z"/>
	<path fill="#080808" d="M295.307,298.647c2.193-1.124,3.994-2.772,5.821-4.379c2.878-2.531,5.645-5.195,8.887-7.282
		c4.146-2.668,8.539-3.915,13.417-2.33c1.992,0.647,3.65,1.78,4.833,3.538c0.597,0.888,0.892,1.856,0.74,2.945
		c-0.1,0.717-0.218,1.065-1.104,0.638c-1.743-0.84-3.625-0.899-5.502-0.484c-1.945,0.429-2.811,1.184-2.838,2.379
		c-0.062,2.643,0.886,4.351,2.764,4.901c1.925,0.564,3.74,0.148,5.396-0.857c3.613-2.193,7.236-4.375,10.598-6.956
		c2.6-1.997,5.557-2.72,8.795-2.286c1.823,0.244,3.355,1.016,4.363,2.622c0.696,1.109,0.616,1.243-0.646,1.441
		c-0.944,0.149-1.897,0.287-2.816,0.54c-1.86,0.511-2.813,1.721-2.531,3.091c0.347,1.688,1.926,2.732,3.799,2.478
		c2.736-0.372,5.134-1.674,7.589-2.81c2.852-1.319,5.612-2.864,8.701-3.605c1.327-0.318,2.672-0.433,4.034-0.174
		c0.563,0.106,1.082,0.293,1.524,0.644c0.418,0.331,0.836,0.802,0.686,1.31c-0.15,0.51-0.754,0.184-1.148,0.217
		c-1.038,0.087-2.083,0.148-3.048,0.561c-0.768,0.328-1.355,0.848-1.277,1.815c0.075,0.929,0.716,1.298,1.491,1.481
		c2.459,0.582,4.829,0.221,7.136-0.737c2.718-1.129,5.307-2.599,8.222-3.215c1.304-0.275,2.623-0.375,3.848,0.325
		c0.367,0.209,0.893,0.457,0.824,0.904c-0.056,0.366-0.592,0.472-0.987,0.56c-0.544,0.121-1.095,0.223-1.632,0.37
		c-0.48,0.132-0.897,0.348-0.887,0.962c0.009,0.616,0.34,0.925,0.899,1.107c1.169,0.38,2.301,0.047,3.427-0.171
		c2.28-0.441,4.429-1.309,6.587-2.136c0.897-0.344,1.811-0.629,2.76-0.759c1.273-0.174,2.371,0.164,3.152,1.261
		c0.75,1.051,0.692,1.266-0.471,1.831c-0.202,0.098-0.376,0.257-0.712,0.492c1.084,0.621,2.4,0.261,3.386,1.308
		c-2.391,0.111-4.594,0.218-6.797,0.315c-7.146,0.315-14.298,0.59-21.447,0.388c-8.113-0.229-16.226-0.222-24.338-0.193
		c-9.83,0.034-19.66,0.196-29.49,0.251c-3.314,0.019-6.629-0.14-9.944-0.181c-5.157-0.063-10.292,0.352-15.427,0.755
		C295.278,300.664,295.403,299.63,295.307,298.647z"/>
	<path fill="#FFFFFF" d="M478.668,307.535c4.26-1.037,7.656-3.459,10.563-6.641c4.436-4.856,7.137-10.688,9.354-16.784
		c1.021-2.807,1.825-5.682,2.609-8.562c0.077-0.282-0.03-0.679,0.416-0.764c-1.501,10.545-3.011,21.09-4.488,31.639
		c-0.129,0.919-0.367,1.309-1.442,1.292c-5.195-0.077-10.395-0.034-15.592-0.036C479.61,307.678,479.125,307.738,478.668,307.535z"
		/>
	<path fill="#0B0B0B" d="M309.919,374.858c0-2.845,0.045-5.521-0.025-8.195c-0.023-0.899,0.369-0.936,1.048-0.918
		c0.667,0.017,1.188-0.088,1.167,0.938c-0.071,3.477-0.008,6.954-0.049,10.432c-0.006,0.48,0.415,1.328-0.344,1.42
		c-0.885,0.106-1.917,0.479-2.614-0.733c-1.488-2.592-3.117-5.103-4.689-7.646c-0.1-0.162-0.208-0.318-0.339-0.519
		c-0.35,0.271-0.22,0.609-0.222,0.89c-0.012,2.356-0.051,4.717,0.015,7.072c0.025,0.908-0.336,1.062-1.113,1.022
		c-0.671-0.034-1.197,0.066-1.18-0.952c0.065-3.676,0.039-7.354,0.013-11.03c-0.004-0.639,0.124-0.876,0.835-0.907
		c1.125-0.052,1.871,0.188,2.476,1.287c1.247,2.268,2.688,4.427,4.063,6.622C309.203,374.029,309.356,374.494,309.919,374.858z"/>
	<path fill="#0A0A0A" d="M301.039,415.383c0.03-5.413,4.708-8.478,9.135-6.198c1.209,0.622,1.961,1.598,2.357,2.872
		c0.17,0.549,0.144,0.91-0.613,0.883c-0.876-0.033-1.544,0.019-2.056-1.069c-0.923-1.963-3.918-2.002-5.392-0.233
		c-1.458,1.75-1.5,5.262-0.104,7.079c0.907,1.183,2.128,1.507,3.517,1.28c1.284-0.209,1.966-1.108,2.348-2.284
		c0.272-0.841,1.238-1.258,2.1-0.95c0.472,0.168,0.303,0.521,0.251,0.794c-0.386,2.045-1.501,3.498-3.526,4.138
		c-3.817,1.203-7.525-1.28-7.961-5.316C301.052,415.979,301.049,415.577,301.039,415.383z"/>
	<path fill="#0A0A0A" d="M300.417,344.261c2.196-0.178,2.193-0.177,2.841,1.872c0.815,2.579,1.638,5.156,2.46,7.732
		c0.008,0.025,0.044,0.044,0.122,0.117c0.578-0.979,0.758-2.083,1.12-3.112c0.566-1.614,1.053-3.255,1.573-4.885
		c0.633-1.988,0.633-1.988,2.904-1.664c-1.169,3.435-2.331,6.854-3.496,10.271c-0.167,0.489-0.421,0.962-0.504,1.464
		c-0.152,0.917-0.706,0.982-1.504,1.065c-1.176,0.123-1.555-0.403-1.87-1.4c-1.117-3.528-2.318-7.031-3.482-10.547
		C300.482,344.88,300.271,344.601,300.417,344.261z"/>
	<path fill="#080808" d="M301.76,393.659c0-1.796,0.024-3.594-0.013-5.39c-0.014-0.661,0.057-0.993,0.874-0.973
		c2.394,0.063,4.791,0.063,7.184,0.001c0.861-0.021,0.838,0.4,0.852,1.017c0.014,0.65-0.04,1.021-0.871,0.985
		c-1.674-0.069-3.353-0.004-5.029-0.03c-0.538-0.009-0.749,0.105-0.776,0.715c-0.114,2.615-0.139,2.614,2.482,2.614
		c0.799,0,1.599,0.029,2.395-0.01c0.641-0.03,1.033,0.016,1.015,0.861c-0.017,0.774-0.205,1.048-1.009,1.01
		c-1.354-0.064-2.714,0.009-4.071-0.029c-0.637-0.018-0.824,0.213-0.806,0.83c0.039,1.356-0.051,2.719,0.032,4.07
		c0.066,1.064-0.631,0.766-1.164,0.783c-0.57,0.018-1.176,0.204-1.124-0.829C301.828,397.415,301.76,395.535,301.76,393.659z"/>
	<path fill="#0A0A0A" d="M328.919,418.22c0-1.55,0.021-3.101-0.01-4.649c-0.013-0.639,0.015-1.046,0.862-0.998
		c0.704,0.04,1.075,0.093,1.051,0.962c-0.064,2.317,0.001,4.64-0.045,6.958c-0.008,0.385,0.409,1.118-0.371,1.15
		c-0.673,0.029-1.477,0.396-2.01-0.529c-0.985-1.711-2.073-3.363-3.317-5.358c0,1.976-0.055,3.593,0.022,5.204
		c0.042,0.891-0.489,0.72-0.982,0.72c-0.492,0-1.007,0.171-0.983-0.719c0.066-2.397,0.009-4.799,0.037-7.198
		c0.004-0.383-0.279-1.05,0.288-1.106c0.677-0.068,1.511-0.414,2.045,0.477c1.042,1.736,2.129,3.444,3.198,5.164
		C328.776,418.27,328.848,418.245,328.919,418.22z"/>
	<path fill="#0D0D0D" d="M348.545,421.681c-0.507,0-0.867-0.033-1.219,0.007c-0.652,0.077-0.979-0.152-0.946-0.839
		c0.009-0.194-0.052-0.394-0.077-0.592c-0.24-1.92-1.023-2.459-2.986-2.15c-0.463,0.071-0.479,0.3-0.478,0.636
		c0.004,0.598-0.076,1.209,0.018,1.792c0.175,1.099-0.359,1.221-1.267,1.173c-0.618-0.032-0.817-0.178-0.809-0.813
		c0.034-2.473,0.031-4.944,0.002-7.418c-0.008-0.647,0.148-0.928,0.86-0.894c1.193,0.057,2.392,0.013,3.588,0.017
		c1.174,0.003,2.288,0.248,2.822,1.407c0.523,1.137,0.414,2.257-0.626,3.136c-0.115,0.099-0.308,0.263-0.175,0.36
		C348.682,418.563,347.949,420.271,348.545,421.681z"/>
	<path fill="#0A0A0A" d="M339.72,397.102c0-1.938,0.046-3.498-0.02-5.053c-0.032-0.764,0.213-0.938,0.934-0.913
		c0.653,0.023,1.011,0.062,0.988,0.89c-0.061,2.314-0.006,4.634-0.036,6.949c-0.005,0.378,0.297,1.054-0.314,1.092
		c-0.673,0.042-1.503,0.445-2.04-0.449c-1.024-1.707-2.093-3.387-3.352-5.413c0,1.896-0.063,3.456,0.024,5.009
		c0.05,0.896-0.361,0.904-1.04,0.934c-0.739,0.029-0.94-0.181-0.924-0.925c0.053-2.315,0.002-4.635,0.037-6.95
		c0.005-0.364-0.322-1.042,0.315-1.063c0.676-0.022,1.509-0.449,2.048,0.446C337.381,393.38,338.464,395.082,339.72,397.102z"/>
	<path fill="#090A0A" d="M318.097,395.877c0.634,0.471,0.984,1.085,1.028,1.891c0.041,0.748,0.159,1.492,0.246,2.267
		c-0.325,0.18-0.736,0.026-1.122,0.092c-0.687,0.115-0.921-0.229-0.944-0.848c-0.009-0.237-0.065-0.475-0.092-0.711
		c-0.187-1.694-1.484-2.466-3.121-1.887c-0.327,0.115-0.287,0.325-0.29,0.551c-0.007,0.599-0.037,1.199,0.006,1.796
		c0.051,0.717,0.014,1.154-0.956,1.134c-0.899-0.02-1.145-0.242-1.119-1.14c0.067-2.313,0.053-4.633,0.005-6.946
		c-0.016-0.746,0.204-0.969,0.941-0.933c1.195,0.062,2.396,0.049,3.592,0.009c1.258-0.041,2.299,0.251,2.813,1.535
		C319.544,393.833,319.24,394.824,318.097,395.877z"/>
	<path fill="#0A0A0A" d="M351.705,357.081c-0.456,0-0.854-0.033-1.244,0.007c-0.698,0.072-0.933-0.268-0.918-0.907
		c0.006-0.276-0.032-0.558-0.069-0.835c-0.21-1.574-1.685-2.384-3.174-1.77c-0.301,0.124-0.294,0.337-0.296,0.57
		c-0.007,0.6-0.069,1.207,0.012,1.796c0.135,0.987-0.285,1.193-1.192,1.168c-0.725-0.021-0.845-0.28-0.837-0.917
		c0.031-2.438,0.038-4.877-0.003-7.314c-0.012-0.702,0.231-0.877,0.89-0.854c1.277,0.046,2.558,0.013,3.837,0.014
		c1.117,0.001,2.076,0.349,2.543,1.435c0.461,1.07,0.361,2.104-0.518,2.972c-0.146,0.146-0.517,0.271-0.211,0.526
		c1.116,0.938,0.792,2.265,0.995,3.449C351.553,356.611,351.624,356.795,351.705,357.081z"/>
	<path fill="#090909" d="M343.759,395.641c0-1.236,0.038-2.476-0.015-3.711c-0.028-0.655,0.208-0.815,0.817-0.781
		c0.835,0.048,1.68,0.07,2.512,0.002c3.709-0.31,5.02,2.439,4.584,5.488c-0.329,2.302-1.747,3.458-4.104,3.48
		c-0.998,0.01-1.997-0.032-2.992,0.014c-0.607,0.027-0.846-0.125-0.818-0.782C343.797,398.116,343.759,396.878,343.759,395.641z"/>
	<path fill="#0B0B0B" d="M333.439,352.592c0.001-2.853,1.75-4.765,4.382-4.79c2.616-0.024,4.537,2.056,4.498,4.87
		c-0.037,2.703-1.887,4.633-4.458,4.649C335.204,357.339,333.438,355.45,333.439,352.592z"/>
	<path fill="#101010" d="M314.558,417.202c0-1.239,0.031-2.48-0.012-3.718c-0.023-0.653,0.138-0.924,0.854-0.902
		c1.718,0.049,3.439,0.055,5.156-0.002c0.77-0.025,0.824,0.338,0.825,0.938c0.001,0.574-0.096,0.894-0.781,0.861
		c-1.077-0.051-2.161,0.036-3.236-0.029c-0.871-0.053-0.696,0.499-0.726,0.999c-0.032,0.541,0.007,0.912,0.731,0.864
		c0.956-0.063,1.92,0.026,2.876-0.028c0.742-0.042,0.709,0.38,0.731,0.898c0.023,0.55-0.098,0.807-0.715,0.771
		c-0.836-0.05-1.684,0.048-2.516-0.027c-0.861-0.078-1.143,0.143-1.145,1.078c-0.002,0.971,0.353,1.124,1.182,1.069
		c0.995-0.064,2,0.023,2.997-0.026c0.798-0.04,0.645,0.473,0.67,0.938c0.026,0.495-0.008,0.824-0.671,0.811
		c-1.838-0.041-3.678-0.037-5.516-0.002c-0.612,0.012-0.727-0.234-0.713-0.774C314.58,419.681,314.558,418.441,314.558,417.202z"/>
	<path fill="#090909" d="M369.72,395.622c0,1.238-0.066,2.48,0.021,3.713c0.066,0.937-0.495,0.776-1.039,0.789
		c-0.581,0.014-1.171,0.077-1.03-0.815c0.025-0.155,0.004-0.318,0.003-0.479c-0.002-2.776-0.21-2.938-3.021-2.564
		c-0.498,0.066-0.58,0.289-0.574,0.695c0.01,0.679-0.052,1.363,0.016,2.036c0.086,0.857-0.143,1.164-1.088,1.165
		c-0.931,0.001-0.998-0.361-0.984-1.113c0.042-2.355,0.044-4.714-0.002-7.069c-0.014-0.714,0.227-0.919,0.88-0.823
		c0.524,0.076,1.31-0.284,1.185,0.781c-0.032,0.275-0.005,0.56-0.004,0.839c0,1.783,0,1.783,1.82,1.783c1.772,0,1.759,0,1.779-1.831
		c0.009-0.752-0.373-1.649,1.104-1.617c1.521,0.032,0.851,1.021,0.91,1.638C369.787,393.698,369.72,394.663,369.72,395.622z"/>
	<path fill="#121212" d="M343.117,374.096c0-1.237,0.036-2.478-0.015-3.714c-0.026-0.646,0.201-0.809,0.815-0.796
		c1.756,0.036,3.516,0.047,5.271-0.004c0.714-0.021,0.746,0.315,0.751,0.864c0.006,0.564-0.063,0.89-0.764,0.851
		c-1.075-0.059-2.16,0.044-3.233-0.034c-0.851-0.062-0.736,0.435-0.749,0.96c-0.014,0.57-0.014,1.009,0.788,0.951
		c0.954-0.067,1.917,0.02,2.874-0.026c0.66-0.033,0.676,0.316,0.678,0.812c0.002,0.506-0.051,0.845-0.69,0.817
		c-0.877-0.038-1.763,0.055-2.634-0.027c-0.887-0.084-1.054,0.272-1.033,1.075c0.02,0.736,0.048,1.197,0.997,1.11
		c1.03-0.093,2.077,0.017,3.113-0.032c0.732-0.034,0.722,0.377,0.727,0.9c0.005,0.51-0.055,0.824-0.692,0.814
		c-1.837-0.031-3.674-0.03-5.511-0.001c-0.624,0.01-0.713-0.285-0.702-0.807C343.135,376.572,343.118,375.334,343.117,374.096z"/>
	<path fill="#0C0C0C" d="M350.279,417.081c0-1.197,0.029-2.396-0.012-3.593c-0.021-0.626,0.081-0.934,0.824-0.908
		c1.715,0.057,3.434,0.058,5.149,0.001c0.767-0.026,0.795,0.334,0.82,0.928c0.029,0.69-0.203,0.903-0.882,0.869
		c-1.036-0.053-2.078,0.028-3.113-0.026c-0.838-0.044-0.723,0.482-0.75,1.005c-0.029,0.557,0.043,0.899,0.748,0.856
		c0.955-0.059,1.918,0.026,2.873-0.025c0.759-0.044,0.686,0.415,0.717,0.912c0.036,0.563-0.141,0.786-0.732,0.752
		c-0.796-0.046-1.597-0.012-2.395-0.011c-1.109,0.001-1.595,0.759-1.187,1.8c0.168,0.431,0.506,0.311,0.799,0.313
		c1.118,0.014,2.238,0.046,3.353-0.008c0.741-0.035,0.707,0.377,0.722,0.895c0.016,0.562-0.05,0.874-0.75,0.856
		c-1.835-0.047-3.673-0.045-5.509,0c-0.647,0.016-0.694-0.271-0.684-0.782C350.297,419.637,350.279,418.359,350.279,417.081z"/>
	<path fill="#0C0C0C" d="M325.358,395.535c0-1.16,0.03-2.32-0.012-3.479c-0.022-0.629,0.09-0.937,0.829-0.914
		c1.717,0.054,3.438,0.035,5.156,0.007c0.584-0.012,0.879,0.097,0.851,0.774c-0.025,0.6-0.063,0.979-0.831,0.935
		c-1.075-0.063-2.16,0.03-3.236-0.031c-0.799-0.047-0.688,0.44-0.672,0.915c0.014,0.446-0.173,0.99,0.647,0.946
		c0.997-0.054,1.999,0.017,2.997-0.021c0.647-0.024,0.681,0.323,0.686,0.822c0.005,0.508-0.04,0.839-0.688,0.803
		c-0.837-0.047-1.683,0.044-2.517-0.026c-0.852-0.071-1.163,0.135-1.171,1.082c-0.008,0.958,0.318,1.129,1.156,1.068
		c0.954-0.07,1.918,0.01,2.876-0.026c0.587-0.021,0.879,0.105,0.827,0.781c-0.042,0.547,0.043,0.995-0.777,0.968
		c-1.797-0.059-3.598-0.038-5.396-0.007c-0.585,0.011-0.753-0.192-0.738-0.76C325.383,398.094,325.358,396.814,325.358,395.535z"/>
	<path fill="#0B0B0B" d="M356.83,400.358c-1.957,0.002-3.387-0.786-3.813-2.099c-0.121-0.373-0.414-1.021,0.141-1.113
		c0.527-0.089,1.311-0.511,1.715,0.397c0.474,1.065,1.662,1.504,2.792,1.073c0.425-0.162,0.791-0.397,0.798-0.933
		c0.006-0.479-0.308-0.747-0.685-0.89c-0.595-0.223-1.221-0.362-1.829-0.551c-0.494-0.153-1.006-0.276-1.467-0.501
		c-1.279-0.622-1.732-1.972-1.068-3.233c0.656-1.247,1.825-1.585,3.13-1.59c1.334-0.005,2.569,0.265,3.293,1.531
		c0.23,0.402,0.617,1.146,0.063,1.305c-0.502,0.143-1.435,0.597-1.828-0.422c-0.236-0.613-0.765-0.78-1.351-0.806
		c-0.659-0.028-1.386-0.007-1.558,0.775c-0.183,0.833,0.576,0.917,1.136,1.084c0.61,0.183,1.234,0.314,1.844,0.496
		c1.604,0.478,2.365,1.347,2.331,2.635c-0.035,1.363-1,2.405-2.564,2.732C357.522,400.334,357.117,400.332,356.83,400.358z"/>
	<path fill="#0C0C0C" d="M324.104,351.072c-0.93,0.083-1.725,0.208-2.407-0.844c-0.758-1.166-2.715-0.806-3.388,0.512
		c-0.615,1.205-0.621,2.453,0.004,3.673c0.43,0.841,1.163,1.165,2.073,1.137c0.858-0.025,1.385-0.517,1.724-1.263
		c0.261-0.575,1.421-1.003,1.909-0.703c0.397,0.245,0.139,0.595,0.08,0.862c-0.598,2.678-4.133,3.784-6.48,2.041
		c-1.753-1.302-2.309-4.11-1.247-6.301c0.921-1.898,2.919-2.75,5.152-2.192C322.986,348.358,323.927,349.471,324.104,351.072z"/>
	<path fill="#0C0C0C" d="M356.67,357.01c1.102-2.907,2.169-5.683,3.199-8.473c0.269-0.729,0.833-0.475,1.302-0.484
		c0.432-0.009,0.924-0.196,1.169,0.487c0.954,2.654,1.962,5.29,2.965,7.927c0.188,0.493,0.032,0.588-0.455,0.631
		c-0.969,0.085-1.728-0.032-1.86-1.212c-0.069-0.616-0.434-0.864-1.073-0.813c-0.634,0.052-1.277,0.038-1.914,0.003
		c-0.442-0.025-0.631,0.189-0.795,0.554C358.522,357.155,358.514,357.151,356.67,357.01z"/>
	<path fill="#0A0A0A" d="M313.569,378.509c1.062-2.807,2.124-5.505,3.092-8.235c0.291-0.819,0.847-0.647,1.414-0.677
		c0.577-0.027,1.012-0.011,1.261,0.713c0.842,2.442,1.787,4.85,2.674,7.276c0.115,0.314,0.586,0.854,0.018,0.954
		c-0.577,0.102-1.674,0.477-1.807-0.291c-0.38-2.188-1.943-1.574-3.264-1.655c-0.478-0.027-0.786,0.133-0.847,0.609
		C315.912,378.773,314.868,378.773,313.569,378.509z"/>
	<path fill="#090909" d="M375.96,395.625c0-1.198,0.031-2.398-0.013-3.595c-0.023-0.639,0.106-0.925,0.83-0.889
		c1.195,0.063,2.396-0.006,3.594,0.023c1.679,0.039,2.727,1.052,2.789,2.646c0.07,1.781-0.888,2.926-2.604,3.102
		c-0.197,0.021-0.399,0.006-0.599,0.008c-1.946,0.018-1.946,0.018-1.954,2.024c-0.005,1.097-0.672,1.523-1.746,1.179
		c-0.416-0.134-0.289-0.422-0.291-0.664C375.953,398.182,375.96,396.903,375.96,395.625z"/>
	<path fill="#0A0A0A" d="M333.813,369.654c2.052-0.108,2.048-0.107,2.603,1.619c0.46,1.433,0.932,2.859,1.473,4.518
		c0.519-1.641,0.958-3.038,1.402-4.435c0.579-1.82,0.58-1.819,2.58-1.703c-0.053,0.795-0.411,1.498-0.651,2.229
		c-0.646,1.969-1.365,3.918-1.931,5.909c-0.251,0.884-0.794,0.823-1.438,0.815c-0.636-0.009-1.193,0.091-1.454-0.808
		C335.608,375.09,334.698,372.414,333.813,369.654z"/>
	<path fill="#161616" d="M335.784,412.597c1,0,2.002,0.048,2.998-0.016c0.77-0.049,0.705,0.396,0.707,0.897
		c0.002,0.504,0.049,0.887-0.703,0.911c-1.945,0.063-1.943,0.108-1.943,2.122c0,1.479-0.056,2.962,0.021,4.438
		c0.045,0.871-0.46,0.758-0.97,0.728c-0.494-0.029-1.149,0.271-1.117-0.723c0.06-1.838-0.023-3.681,0.034-5.52
		c0.025-0.813-0.169-1.205-1.044-1.075c-0.313,0.047-0.642-0.023-0.958,0.013c-0.716,0.081-0.754-0.34-0.742-0.883
		c0.012-0.511-0.034-0.948,0.719-0.907C333.782,412.637,334.784,412.597,335.784,412.597z"/>
	<path fill="#0F0F0F" d="M325.679,369.599c0.879,0,1.759,0.032,2.635-0.01c0.65-0.032,1,0.031,1.007,0.862
		c0.007,0.873-0.42,0.883-1.029,0.832c-0.159-0.015-0.323,0.019-0.479-0.006c-0.885-0.137-1.248,0.132-1.194,1.125
		c0.093,1.752-0.025,3.515,0.048,5.269c0.037,0.882-0.36,0.946-1.061,0.954c-0.72,0.008-1.066-0.1-1.03-0.959
		c0.075-1.794-0.031-3.595,0.045-5.389c0.038-0.883-0.267-1.131-1.069-1.002c-0.233,0.036-0.482-0.024-0.717,0.011
		c-0.711,0.107-0.96-0.118-0.95-0.892c0.01-0.742,0.306-0.833,0.917-0.807C323.761,369.629,324.72,369.599,325.679,369.599z"/>
	<path fill="#0B0B0B" d="M327.919,353.408c0-0.957-0.031-1.916,0.011-2.872c0.027-0.611-0.15-0.895-0.8-0.823
		c-0.394,0.044-0.802-0.031-1.195,0.018c-0.714,0.086-0.748-0.315-0.752-0.863c-0.006-0.585,0.12-0.857,0.793-0.843
		c1.954,0.043,3.91,0.048,5.864-0.001c0.738-0.02,0.712,0.362,0.735,0.885c0.027,0.587-0.098,0.824-0.767,0.834
		c-1.928,0.027-1.927,0.064-1.927,2.026c0,1.518-0.046,3.034,0.019,4.548c0.035,0.811-0.389,0.789-0.952,0.772
		c-0.564-0.016-1.121,0.104-1.045-0.81C327.98,355.328,327.919,354.365,327.919,353.408z"/>
	<path fill="#080808" d="M355.521,352.604c0,1.239-0.045,2.48,0.016,3.718c0.041,0.822-0.435,0.799-0.98,0.758
		c-0.5-0.039-1.148,0.254-1.131-0.729c0.045-2.517,0.045-5.035-0.002-7.554c-0.015-0.821,0.437-0.798,0.982-0.756
		c0.5,0.038,1.171-0.257,1.129,0.727C355.479,350.045,355.521,351.326,355.521,352.604z"/>
	<path fill="#171717" d="M330.598,373.919c0-1.195,0.059-2.396-0.02-3.586c-0.057-0.856,0.441-0.772,0.96-0.73
		c0.485,0.039,1.145-0.285,1.125,0.71c-0.049,2.511-0.048,5.022,0,7.533c0.018,0.943-0.577,0.744-1.105,0.764
		c-0.528,0.02-1.022,0.103-0.978-0.743C330.647,376.553,330.598,375.234,330.598,373.919z"/>
	<path fill="#131313" d="M321.238,395.575c0-1.239,0.057-2.481-0.021-3.715c-0.049-0.788,0.393-0.765,0.88-0.691
		c0.457,0.066,1.203-0.384,1.195,0.641c-0.02,2.558-0.016,5.114-0.001,7.673c0.006,1.024-0.751,0.555-1.205,0.63
		c-0.501,0.083-0.914,0.065-0.869-0.701C321.292,398.136,321.238,396.854,321.238,395.575z"/>
	<path fill="#0A0A0A" d="M314.081,352.549c0,1.239-0.058,2.482,0.02,3.718c0.057,0.898-0.458,0.805-1.039,0.827
		c-0.642,0.024-1.023-0.023-1.003-0.863c0.059-2.438,0.069-4.88-0.003-7.316c-0.029-0.958,0.479-0.845,1.102-0.894
		c0.745-0.057,0.977,0.187,0.939,0.931C314.037,350.147,314.081,351.349,314.081,352.549z"/>
	<path fill="#080808" d="M371.84,395.516c0-1.194,0.053-2.393-0.019-3.583c-0.048-0.798,0.362-0.832,0.934-0.771
		c0.488,0.051,1.125-0.269,1.104,0.722c-0.056,2.508-0.054,5.02-0.001,7.526c0.021,1-0.634,0.651-1.113,0.712
		c-0.586,0.072-0.968,0.002-0.924-0.782C371.891,398.067,371.839,396.79,371.84,395.516z"/>
	<path fill="#F7AC2F" d="M355.779,276.874c0.405,2.195,0.807,4.391,1.217,6.584c0.103,0.549-0.015,0.803-0.662,0.754
		c-1.507-0.114-2.906-0.479-4.118-1.431c-7.714-6.06-13.348-13.796-17.962-22.344c-0.816-1.512-1.261-3.184-1.733-4.833
		c-0.604-3.877-0.986-7.774-0.709-11.697c0.691-9.801,3.505-18.884,10.07-26.365c4.837-5.512,11.06-9.092,18.135-11.134
		c9.265-2.673,18.698-3.161,28.247-2.227c1.714,0.168,3.407-0.267,5.133-0.224c2.278,0.056,3.948,1.033,5.329,2.747
		c2.819,3.5,4.189,7.58,4.824,11.951c0.838,5.765,1.366,11.592,3.021,17.203c2.052,6.965,5.725,13.046,10.479,18.498
		c1.298,1.488,2.712,2.881,3.919,4.578c-0.537,0.101-0.786-0.202-1.067-0.371c-13.005-7.767-26.669-14.036-41.271-18.177
		c-3.513-0.996-7.072-1.641-10.753-1.39c-5.832,0.397-9.744,3.39-11.883,8.763c-1.874,4.706-2.009,9.655-1.972,14.626
		c0.035,4.766,0.854,9.458,1.294,14.186C355.35,276.931,355.516,276.939,355.779,276.874z"/>
	<path fill="#FFFFFF" d="M359.85,272.937c0.821-3.783,4.059-5.913,7.982-5.496c4.45,0.473,8.627,1.922,12.775,3.479
		c7.458,2.797,14.908,5.616,22.352,8.449c2.69,1.024,5.15,2.519,7.68,3.87c2.231,1.193,4.553,2.087,7.086,2.418
		c1.564,0.205,2.879-0.259,4.188-1.05c3.23-1.953,4.889-4.908,5.63-8.498c1.263-6.115,0.166-11.663-3.95-16.481
		c-1.687-1.974-3.397-3.925-5.1-5.885c-0.157-0.181-0.348-0.342-0.284-0.649c0.327-0.262,0.574,0.085,0.816,0.192
		c12.749,5.643,25.593,11.058,38.716,15.779c3.97,1.428,7.747,3.378,11.87,4.386c2.115,0.518,4.233,0.691,6.395,0.2
		c1.564-0.356,2.761-1.176,3.688-2.457c1.604-2.219,2.64-4.718,3.602-7.254c1.681-4.43,3.643-8.763,4.628-13.432
		c0.681-3.225,0.496-5.522-0.688-8.084c1.018,0.259,1.757,0.838,2.467,1.405c2.091,1.671,4.135,3.4,6.21,5.091
		c1.27,1.034,2.599,1.967,4.273,2.275c0.402-1.153-0.278-1.823-0.958-2.535c-2.842-2.978-5.602-6.026-7.911-9.452
		c-2.825-4.19-4.085-8.777-3.616-13.831c0.184-1.993,0.087-3.985-0.354-6.261c1.66,1.638,3.155,3.064,4.599,4.543
		c5.083,5.215,8.876,11.159,10.364,18.407c0.469,2.278,0.695,4.581,0.801,6.893c0.394,8.648-0.417,17.123-3.403,25.34
		c-2.176,5.99-3.925,12.135-6.394,18.021c-1.351,3.222-3.077,6.237-5.615,8.689c-3.705,3.578-8.285,5.092-13.32,5.47
		c-5.915,0.442-11.565-0.884-17.233-2.367c-7.4-1.938-14.902-3.477-22.147-6.008c-5.188-1.813-10.28-3.921-15.578-5.4
		c-2.99-0.834-6.056-1.404-9.099-2.041c-3.19-0.667-5.918-2.089-8.033-4.619c-2.656-3.176-6.106-5.215-9.877-6.754
		c-7.458-3.045-15.169-5.351-22.872-7.663C366.259,270.645,362.963,270.859,359.85,272.937z"/>
	<path fill="#FFFFFF" d="M399.3,204.663c3.538,0.606,6.834,1.172,10.131,1.734c6.807,1.16,13.621,2.264,20.415,3.491
		c9.957,1.797,19.191,5.549,27.931,10.583c8.79,5.063,17.072,10.803,24.134,18.165c0.663,0.692,1.291,1.419,1.968,2.097
		c2.519,2.521,3.294,5.58,2.387,8.93c-1.604,5.917-3.229,11.848-5.94,17.384c-2.51,5.123-5.462,6.549-10.918,4.836
		c-4.628-1.453-9.114-3.364-13.651-5.101c-8.258-3.161-16.37-6.679-24.544-10.044c-1.913-0.788-3.873-1.489-5.859-2.069
		c-6.865-2.003-11.511-6.426-14.407-12.872c-1.764-3.92-2.281-8.084-2.87-12.287c-1.021-7.287-2.753-14.411-6.213-20.998
		C401.176,207.214,400.346,206.001,399.3,204.663z"/>
	<path fill="#FFFFFF" d="M405.82,204.154c2.662-1.775,5.078-3.397,7.505-5.003c5.213-3.45,11.063-4.626,17.188-4.698
		c7.262-0.085,14.436,0.611,21.4,2.801c4.479,1.407,8.612,3.574,12.577,6.039c6.402,3.981,12.808,7.955,18.688,12.725
		c2.218,1.798,3.114,3.93,3.057,6.638c-0.024,1.118,0.038,2.246-0.097,3.351c-0.63,5.188,1.124,9.655,4.063,13.779
		c1.223,1.716,2.457,3.425,3.825,5.329c-1.02-0.286-1.732-0.717-2.349-1.237c-4.992-4.23-10.541-7.759-15.229-12.382
		c-3.481-3.433-7.706-5.931-11.834-8.516c-7.753-4.854-15.748-9.212-24.463-12.141c-6.046-2.032-12.288-3.083-18.574-3.96
		C416.375,206.153,411.171,205.424,405.82,204.154z"/>
	<path fill="#A41C33" d="M413.441,278.594c-0.98-1.542-2.543-2.259-4.163-2.838c-5.89-2.105-11.781-4.198-17.689-6.248
		c-5.2-1.804-10.486-3.31-15.888-4.394c-0.546-0.109-1.11-0.207-1.617-0.425c-3.338-1.433-6.678-1.199-10.051-0.131
		c-1.207,0.382-2.452,0.653-3.963,0.674c2.608-2.424,5.349-4.292,8.329-5.823c1.81-0.929,3.625-1.834,5.677-2.132
		c2.271-0.329,4.482,0.001,6.58,0.814c7.318,2.837,14.847,5.098,22.111,8.078c2.805,1.15,5.537,2.438,8.163,3.965
		c1.743,1.013,2.791,2.422,3.216,4.377c0.217,1,0.405,2.049,1.269,2.769C414.883,277.909,414.301,278.46,413.441,278.594z"/>
	<path fill="#FFFFFF" d="M414.094,196.417c-0.82,1.231-2.238,1.62-3.194,2.531c-1.369,1.304-2.386,0.788-3.644-0.112
		c-2.313-1.657-4.337-3.505-5.261-6.299c-0.073-0.222-0.102-0.458-0.15-0.692C404.29,191.647,407.148,192.714,414.094,196.417z"/>
	<path fill="#FEFEFE" d="M344.286,416.678c-1.333,0.003-1.907-0.873-1.448-2.155c0.118-0.329,0.336-0.275,0.558-0.278
		c0.559-0.007,1.118-0.017,1.676,0.004c0.757,0.026,1.163,0.39,1.173,1.194c0.011,0.869-0.42,1.232-1.241,1.235
		C344.765,416.678,344.525,416.678,344.286,416.678z"/>
	<path fill="#FBFBFB" d="M315.159,395.196c-0.462-0.155-1.14,0.249-1.295-0.305c-0.176-0.625-0.311-1.616,0.028-1.953
		c0.617-0.612,1.625-0.275,2.468-0.152c0.611,0.089,0.84,0.521,0.844,1.117c0.003,0.521-0.117,0.989-0.661,1.136
		C316.089,395.159,315.601,395.151,315.159,395.196z"/>
	<path fill="#FBFBFB" d="M347.412,352.081c-1.345,0-1.842-0.738-1.404-2.088c0.023-0.072,0.033-0.189,0.081-0.208
		c0.768-0.303,1.563-0.119,2.347-0.104c0.479,0.011,0.815,0.267,0.963,0.75C349.746,351.573,349.138,352.082,347.412,352.081z"/>
	<path fill="#FEFEFE" d="M345.76,395.537c0-0.318-0.061-0.652,0.013-0.953c0.144-0.58-0.47-1.446,0.44-1.717
		c1.324-0.395,2.766,0.206,3.184,1.243c0.398,0.988,0.428,2.029,0.033,3.028c-0.434,1.095-2.263,1.721-3.401,1.248
		c-0.387-0.16-0.255-0.451-0.261-0.697C345.748,396.973,345.76,396.255,345.76,395.537z"/>
	<path fill="#FEFEFE" d="M340.239,352.424c-0.008,1.042-0.175,1.891-0.855,2.547c-1.047,1.012-2.871,0.697-3.545-0.618
		c-0.475-0.927-0.528-1.901-0.247-2.899c0.36-1.275,1.098-1.891,2.274-1.888c1.109,0.003,1.954,0.714,2.254,1.934
		C340.205,351.844,340.213,352.207,340.239,352.424z"/>
	<path fill="#F7F7F7" d="M362.134,353.458c-2.214,0.273-2.215,0.273-1.557-1.638c0.127-0.369,0.263-0.734,0.455-1.271
		C361.611,351.55,361.789,352.522,362.134,353.458z"/>
	<path fill="#EDEDEE" d="M317.976,371.896c0.403,1.188,0.726,2.14,1.069,3.15c-0.756,0-1.408,0-2.176,0
		C317.229,374.022,317.563,373.072,317.976,371.896z"/>
	<path fill="#F6F6F6" d="M378.017,394.003c-0.128-0.846-0.08-1.446,1.097-1.354c1.476,0.114,2.117,0.432,2.116,1.37
		c0,0.962-0.568,1.222-2.122,1.333C377.932,395.438,377.887,394.844,378.017,394.003z"/>
	<path fill="#FFFEFE" d="M402.233,231.27c-0.077,2.562-0.313,2.759-2.641,2.534c-2.042-0.197-3.293-1.452-4.228-3.136
		c-1.305-2.351-1.76-4.946-2.095-7.559c-0.273-2.128-0.679-4.253-0.285-6.426c0.361-1.998,1.488-2.938,3.46-2.848
		c1.208,0.056,1.892,0.689,2.309,1.749c0.812,2.055,1.207,4.209,1.526,6.38c0.437,2.96,1.661,5.747,1.905,8.748
		C402.209,230.988,402.232,231.264,402.233,231.27z"/>
	<path fill="#080808" d="M452.196,300.933c1.28-1.074,2.654-1.27,3.987-1.331c6.649-0.306,9.471-4.666,10.204-10.313
		c0.411-3.157,0.14-6.301-0.692-9.378c-0.495-1.829-1.271-3.523-2.671-4.87c-0.634-0.609-1.049-1.364-1.496-2.297
		c3.668,0.5,7.097,1.097,10.088,3.155c1.115,0.768,2.272,1.483,3.544,1.975c2.712,1.051,5.498,0.319,7.566-2.001
		c1.67-1.875,2.653-4.147,3.642-6.416c1.095-2.515,2.01-5.122,3.613-7.386c0.218-0.307,0.396-0.887,0.824-0.735
		c0.446,0.157,0.376,0.742,0.347,1.176c-0.022,0.314-0.07,0.64-0.182,0.933c-1.979,5.276-3.154,10.78-4.539,16.22
		c-0.939,3.698-2.724,6.578-6.36,8.13c-2.679,1.143-4.009,3.397-4.73,6.102c-0.399,1.501-0.816,2.997-1.404,4.442
		c-1.063,2.613-2.994,3.928-5.797,4.042c-4.158,0.167-8.304-0.089-12.437-0.497C454.574,301.772,453.481,301.292,452.196,300.933z"
		/>
	<path fill="#090909" d="M446.375,281.545c-2.04-0.969-4.085-1.93-6.12-2.91c-0.969-0.467-1.89-1.041-2.882-1.445
		c-2.137-0.869-3.124-2.532-3.573-4.689c-0.422-2.027-0.803-4.067-1.452-6.041c-0.56-1.7-1.364-3.231-2.918-4.253
		c-0.197-0.13-0.375-0.298-0.549-0.462c-0.604-0.575-1.184-1.383-0.852-2.081c0.236-0.499,1.166,0.002,1.749,0.169
		c3.271,0.936,6.223,2.644,9.332,3.971c5.856,2.5,11.704,5.033,17.417,7.855c3.074,1.52,5.606,3.615,6.421,7.132
		c1.099,4.756,0.778,9.466-1.127,13.969c-1.701,4.018-4.352,5.224-8.593,3.992c-5.315-1.544-10.587-3.245-15.897-4.803
		c-3.592-1.054-7.283-1.769-10.757-3.214c-1.108-0.461-1.263-0.917-0.237-1.454c2.387-1.252,3.551-3.463,4.905-5.564
		c1.679-2.604,4.193-2.773,6.896-2.27c2.16,0.402,4.174,1.313,6.28,1.906C445.027,281.525,445.62,281.76,446.375,281.545z"/>
	<path fill="#090909" d="M456.783,245.236c-1.773,0.204-3.183-0.491-4.617-1.073c-1.254-0.508-2.49-1.065-3.768-1.504
		c-2.27-0.78-4.304-0.379-6.079,1.307c-1.702,1.615-3.333,3.319-5.653,4.124c-5.075,1.76-10.098,1.737-15.055-0.382
		c-3.313-1.416-5.524-3.867-6.521-7.347c-0.604-2.107-1.113-4.24-1.7-6.352c-0.599-2.148-1.501-4.122-3.359-5.512
		c-0.285-0.213-0.521-0.497-0.762-0.764c-1.042-1.162-0.892-2.072,0.631-2.229c3.766-0.386,6.556-2.548,9.389-4.687
		c5.166-3.899,10.569-3.304,16.04-0.831c4.102,1.854,7.336,4.785,9.92,8.432c1.591,2.245,3.099,4.55,4.618,6.844
		c1.478,2.232,3.008,4.421,4.751,6.458C455.496,242.748,456.323,243.82,456.783,245.236z"/>
	<path fill="#0B0303" d="M467.789,250.843c1.586,1.253,3.24,1.975,4.788,2.863c3.252,1.866,4.024,4.875,3.632,8.22
		c-0.382,3.25-2.424,5.423-5.486,6.5c-2.531,0.89-5.128,0.524-7.693,0.032c-5.147-0.987-9.844-3.146-14.409-5.622
		c-0.626-0.339-1.188-0.803-1.764-1.228c-0.613-0.452-0.852-1.051-0.574-1.786c0.271-0.722,0.857-1.02,1.588-1.058
		c1.135-0.058,2.207,0.303,3.293,0.545c1.766,0.395,2.465,0.155,3.417-1.377c1.479-2.382,2.1-5.07,2.593-7.78
		c1.259-6.904,1.349-13.812-0.092-20.705c-0.353-1.686-0.901-3.3-1.888-4.748c-0.354-0.521-0.592-1.125-0.842-1.708
		c-0.194-0.455-0.263-0.94,0.12-1.349c0.396-0.422,0.869-0.309,1.33-0.131c0.63,0.243,1.303,0.423,1.873,0.768
		c5.524,3.343,11.206,6.453,16.101,10.741c3.144,2.755,5.435,6.156,7.263,9.867c1.354,2.749,0.467,7.162-1.693,9.269
		c-0.814,0.796-1.817,0.732-2.813,0.663c-2.85-0.199-5.549-1.059-8.252-1.897C468.207,250.901,468.129,250.898,467.789,250.843z"/>
	<path fill="#0C0C0C" d="M478.355,221.743c-0.729-0.181-1.429-0.47-2.07-0.875c-4.853-3.055-9.838-5.902-14.479-9.285
		c-0.321-0.235-0.634-0.484-0.958-0.716c-0.357-0.256-0.426-0.575-0.174-0.923c0.278-0.384,0.598-0.24,0.925-0.034
		c1.746,1.101,3.505,2.181,5.244,3.292c2.518,1.608,5.008,3.259,7.538,4.846c0.975,0.611,2.027,1.095,3.044,1.639
		c0.604,0.323,1.194,0.677,1.47,1.342C479.09,221.5,479.118,221.933,478.355,221.743z"/>
	<path fill="#0C0C0C" d="M480.438,217.081c-0.824-0.038-1.49-0.3-2.086-0.72c-3.878-2.739-8.016-5.051-12.131-7.402
		c-1.349-0.771-2.667-1.597-3.884-2.569c-0.292-0.233-0.765-0.431-0.386-0.934c0.303-0.404,0.712-0.486,1.165-0.259
		c0.142,0.071,0.263,0.181,0.395,0.271c4.974,3.393,10.163,6.428,15.429,9.34c0.702,0.388,1.376,0.821,1.847,1.489
		c0.123,0.175,0.39,0.361,0.229,0.612C480.873,217.129,480.589,217.075,480.438,217.081z"/>
	<path fill="#0D0D0D" d="M478.455,227.363c-2.111-0.94-3.92-1.994-5.716-3.067c-3.973-2.373-7.742-5.05-11.531-7.697
		c-0.412-0.288-0.781-0.499-0.37-1.12c0.473-0.714,0.788-0.178,1.123,0.056c4.71,3.282,9.55,6.36,14.473,9.312
		C477.788,225.659,478.018,225.927,478.455,227.363z"/>
	<path fill="#0E0E0E" d="M454.787,208.107c-1.132-0.048-2.176-0.303-3.188-0.683c-4.4-1.654-8.939-2.861-13.448-4.169
		c-0.326-0.095-0.769-0.067-0.921-0.443c-0.119-0.295-0.023-0.639,0.148-0.919c0.255-0.412,0.602-0.097,0.847-0.022
		c3.348,1.026,6.685,2.08,10.021,3.138c1.82,0.578,3.63,1.189,5.539,1.434c0.425,0.054,0.845,0.236,1.235,0.421
		c0.438,0.207,0.938,0.549,0.786,1.05C455.688,208.313,455.113,208.06,454.787,208.107z"/>
	<path fill="#0E0E0E" d="M439.871,198.158c3.393,0.631,6.59,1.613,9.798,2.546c2.254,0.656,4.498,1.344,6.742,2.032
		c0.301,0.092,0.789-0.015,0.746,0.557c-0.039,0.523-0.384,0.824-0.843,0.86c-0.423,0.033-0.888-0.039-1.283-0.192
		c-4.793-1.851-9.813-3.001-14.637-4.756c-0.225-0.082-0.452-0.152-0.675-0.239c-0.234-0.092-0.619-0.071-0.514-0.484
		C439.313,198.067,439.63,198.067,439.871,198.158z"/>
	<path fill="#0E0E0E" d="M454.661,211.854c-1.298,0.227-2.52-0.004-3.649-0.475c-3.719-1.546-7.6-2.584-11.434-3.771
		c-0.493-0.152-0.974-0.345-1.459-0.52c-0.438-0.157-0.882-0.375-0.627-0.926c0.201-0.436,0.582-0.523,1.1-0.342
		c1.99,0.697,3.992,1.363,6.006,1.985c2.81,0.867,5.525,2.038,8.451,2.525C453.845,210.463,454.551,210.86,454.661,211.854z"/>
	<path fill="#0E0E0E" d="M428.514,198.795c-2.663-0.197-5.328-0.373-7.986-0.61c-0.42-0.038-1.209,0.144-1.111-0.675
		c0.081-0.679,0.69-0.456,1.159-0.44c4.662,0.157,9.325,0.296,13.987,0.459c0.344,0.012,0.98-0.238,0.941,0.355
		c-0.036,0.547-0.313,1.156-1.131,1.11c-1.951-0.109-3.903-0.185-5.854-0.274C428.517,198.745,428.515,198.77,428.514,198.795z"/>
	<path fill="#111111" d="M420.633,200.183c3.739,0.401,7.478,0.727,11.231,0.66c0.313-0.005,0.64,0.054,0.937,0.152
		c0.311,0.103,0.591,0.305,0.508,0.702c-0.087,0.415-0.441,0.247-0.689,0.263c-4.932,0.332-9.794-0.522-14.689-0.832
		c-0.264-0.017-0.606,0.045-0.564-0.404c0.036-0.383,0.255-0.549,0.64-0.545C418.88,200.189,419.757,200.183,420.633,200.183z"/>
	<path fill="#FFFFFF" d="M432.598,262.734c4.154,1.425,8.085,3.231,12.062,4.924c2.932,1.249,5.884,2.455,8.768,3.805
		c6.97,3.262,9.353,7.659,8.39,15.294c-0.199,1.583-0.384,3.173-0.896,4.698c-1.069,3.178-3.151,4.449-6.448,3.888
		c-3.038-0.517-5.899-1.665-8.831-2.561c-5.297-1.618-10.57-3.312-15.931-4.715c-0.854-0.224-0.892-0.529-0.42-1.092
		c1.434-1.714,2.813-3.48,4.452-5.008c1.39-1.293,3.055-1.198,4.739-0.795c4.147,0.991,8.222,2.298,12.464,2.883
		c0.986,0.136,1.961,0.366,2.945,0.512c1.675,0.249,3.271,0.67,4.696,1.65c0.547,0.376,1.438,0.768,1.813,0.152
		c0.339-0.556-0.486-1.082-0.998-1.427c-1.549-1.042-3.394-1.359-5.112-1.975c-4.725-1.692-9.467-3.336-13.889-5.755
		c-0.596-0.325-1.165-0.692-1.749-1.037c-2.521-1.491-4.005-3.591-3.962-6.626C434.726,267.08,433.906,264.859,432.598,262.734z"/>
	<path fill="#FFFFFF" d="M452.993,242.595c-0.93,0.074-1.655-0.271-2.384-0.559c-0.813-0.321-1.602-0.706-2.403-1.055
		c-2.473-1.076-4.729-0.862-6.701,1.111c-0.706,0.706-1.502,1.328-2.161,2.072c-4.25,4.8-14.762,5.217-20.274,0.139
		c-1.298-1.195-1.945-2.813-2.515-4.428c-0.701-1.99-1.301-4.017-1.916-6.036c-0.615-2.026-1.31-4.018-2.508-5.786
		c-0.261-0.384-0.34-0.583,0.187-0.758c2.462-0.818,4.584-2.258,6.556-3.873c7.157-5.863,14.007-4.041,20.28,0.979
		c1.689,1.353,3.105,2.989,4.446,4.684C446.992,233.375,449.648,238.174,452.993,242.595z"/>
	<path fill="#A41C33" d="M455.479,222.53c1.366,0.405,2.571,1.076,3.733,1.824c4.362,2.81,8.923,5.318,12.949,8.639
		c3.463,2.855,5.989,6.417,7.948,10.397c1.154,2.348,0.389,6.165-1.436,7.954c-0.416,0.408-0.905,0.448-1.436,0.445
		c-3.048-0.012-5.872-1.053-8.742-1.88c-1.181-0.34-2.362-0.674-3.701-1.055c0.872,1.739,2.146,2.837,3.626,3.715
		c1.064,0.631,2.138,1.252,3.242,1.808c3.462,1.743,4.035,5.347,3.405,8.05c-0.727,3.111-3.604,5.342-6.937,5.434
		c-4.192,0.116-8.139-1-11.967-2.563c-2.475-1.011-4.91-2.127-7.226-3.479c-0.48-0.281-0.929-0.624-1.372-0.961
		c-0.188-0.143-0.362-0.336-0.288-0.612c0.092-0.342,0.389-0.368,0.668-0.389c0.851-0.064,1.666,0.153,2.48,0.348
		c2.9,0.693,4.174,0.132,5.521-2.558c1.393-2.778,2.047-5.789,2.521-8.825c0.528-3.396,0.82-6.825,0.683-10.265
		c-0.151-3.748-0.418-7.486-1.538-11.111c-0.396-1.278-1.008-2.423-1.685-3.556C455.7,223.5,455.319,223.144,455.479,222.53z"/>
	<path fill="#0D0D0D" d="M456.294,291.479c-0.442,0.979-1.313,0.991-2.058,0.811c-5.619-1.357-11.444-1.716-16.974-3.505
		c-0.248-0.081-0.762,0.064-0.638-0.469c0.083-0.362,0.335-0.628,0.789-0.558c0.354,0.055,0.714,0.075,1.071,0.115
		c2.144,0.24,4.265,0.618,6.37,1.078C448.658,289.781,452.456,290.629,456.294,291.479z"/>
	<path fill="#0D0D0D" d="M438.828,267.031c3.056,1.468,6.051,2.923,9.061,4.348c2.519,1.191,4.939,2.585,7.601,3.474
		c0.951,0.318,1.776,0.867,1.899,2.253c-1.402-0.608-2.669-1.134-3.915-1.701c-4.641-2.112-9.199-4.401-13.922-6.335
		C438.786,268.756,438.709,268.5,438.828,267.031z"/>
	<path fill="#0E0E0E" d="M440.171,272.833c2.125,0.866,4.238,1.764,6.379,2.589c3.233,1.248,6.485,2.445,9.73,3.663
		c0.915,0.343,1.785,0.729,2.011,1.954c-1.359-0.135-2.552-0.671-3.764-1.09c-4.405-1.523-8.604-3.592-13.042-5.03
		C440.525,274.608,440.585,273.583,440.171,272.833z"/>
	<path fill="#0E0E0E" d="M458.098,288.493c-0.642,1.184-1.545,1.062-2.402,0.858c-5.58-1.325-11.172-2.591-16.815-3.624
		c-0.348-0.063-1.141,0.176-0.986-0.649c0.136-0.717,0.613-0.879,1.344-0.689c4.433,1.153,8.906,2.125,13.399,3.013
		C454.426,287.755,456.215,288.116,458.098,288.493z"/>
	<path fill="#080808" d="M416.76,233.097c-0.001-6.963,5.128-12.108,12.185-11.992c6.388,0.105,13.321,3.354,13.141,12.328
		c-0.163,8.095-4.542,12.546-13.062,12.879C422.412,246.57,416.761,240.262,416.76,233.097z"/>
	<path fill="#080808" d="M479.941,247.908c-1.081-0.077-1.871-0.506-2.67-0.93c-2.815-1.495-5.438-3.362-8.492-4.394
		c-1.985-0.67-2.213-0.618-3.308,1.146c-0.753,1.215-1.618,2.278-3.026,2.764c-0.452,0.156-0.982,0.477-1.363,0.173
		c-0.399-0.319-0.172-0.904-0.036-1.352c0.614-2.034,1.13-4.071,0.856-6.232c-0.438-3.444-0.84-6.882-2.532-10.019
		c-0.551-1.019-1.063-2.516-0.254-3.23c0.581-0.513,1.496,0.922,2.233,1.518c0.526,0.425,0.916,0.989,1.25,1.593
		c1.394,2.513,2.802,5.017,4.214,7.519c1.017,1.8,2.828,2.682,4.48,3.682c2.094,1.266,4.076,2.667,5.965,4.204
		C478.398,245.276,479.369,246.36,479.941,247.908z"/>
	<path fill="#090807" d="M471.796,262.041c-1.311-0.063-2.401-0.667-3.515-1.197c-1.67-0.794-3.385-1.389-5.267-1.415
		c-0.896-0.012-1.604,0.263-2.239,0.913c-0.862,0.884-1.802,1.694-2.707,2.535c-0.479,0.443-1.027,0.764-1.666,0.9
		c-0.503,0.108-1.109,0.583-1.463-0.16c-0.313-0.658-0.526-1.485,0.115-2.01c3.42-2.791,3.845-6.797,4.451-10.733
		c0.149-0.969,0.646-1.294,1.598-0.881c1.286,0.558,1.936,1.673,2.216,2.952c0.429,1.952,1.482,3.377,3.139,4.459
		c0.681,0.445,1.384,0.781,2.14,1.037c1.44,0.487,2.844,1.055,4.075,1.966c0.332,0.246,0.888,0.449,0.774,0.931
		c-0.106,0.455-0.675,0.497-1.095,0.613C472.163,262.004,471.961,262.016,471.796,262.041z"/>
	<path fill="#FFFFFF" d="M435.76,233.309c0,4.43-3.054,7.599-7.336,7.61c-4.517,0.012-8.323-3.666-8.304-8.022
		c0.02-4.299,3.507-7.577,8.054-7.571C432.563,225.332,435.759,228.694,435.76,233.309z"/>
	<path fill="#080808" d="M432.159,232.977c-0.032,3.237-2.177,5.412-5.288,5.365c-3.063-0.047-5.489-2.772-5.434-6.1
		c0.049-2.956,2.328-4.983,5.579-4.961C430.055,227.302,432.192,229.669,432.159,232.977z"/>
</g>
</svg>
